# xmcd CD database file
# Copyright (C) 1995-1998 Ti Kan
#
# Track frame offsets:
#	150
#	19666
#	32303
#	50752
#	75961
#	97248
#	108208
#	121687
#	138465
#	160496
#	177798
#	195151
#	214710
#	233632
#	257439
#	276048
#	300574
#
# Disc length: 4327 seconds
#
# Revision: 1
# Processed by: cddbd v1.4PL0 Copyright (c) Steve Scherf et al.
# Submitted via: CDex 1.30Release
#
DISCID=ce10e511
DTITLE=The Floating Men - Boot 5 - Please Be Seated
DYEAR=1900
DGENRE=Blues
TTITLE0=Hero
TTITLE1=Roll Down the Windows and Drive
TTITLE2=World of Shadows
TTITLE3=Another Maybe Sunday
TTITLE4=Hey Maria
TTITLE5=Forgiven
TTITLE6=Lemon Pie
TTITLE7=Kingdom of Heaven
TTITLE8=Loser for the Evening
TTITLE9=Wrong Kind of Man
TTITLE10=New Orleans
TTITLE11=Alright Chameleons
TTITLE12=The Usual Trees
TTITLE13=You Let Me Down
TTITLE14=The Idle Hours
TTITLE15=The Rude Hitchhiker
TTITLE16=Darkness on the Edge of Town
EXTD=ID3G:   0
EXTT0=
EXTT1=
EXTT2=
EXTT3=
EXTT4=
EXTT5=
EXTT6=
EXTT7=
EXTT8=
EXTT9=
EXTT10=
EXTT11=
EXTT12=
EXTT13=
EXTT14=
EXTT15=
EXTT16=
PLAYORDER=
